<svg xmlns="http://www.w3.org/2000/svg" viewBox="0 0 64 64" fill="none" data-icon-material="allybi-neutral"><defs>
<linearGradient id="paper" x1="8" y1="8" x2="56" y2="56" gradientUnits="userSpaceOnUse"><stop stop-color="#fff"/><stop offset=".38" stop-color="#f3f6fa"/><stop offset=".73" stop-color="#e5eaf2"/><stop offset="1" stop-color="#cad2df"/></linearGradient>
<linearGradient id="edge" x1="8" y1="8" x2="56" y2="56" gradientUnits="userSpaceOnUse"><stop stop-color="#fff"/><stop offset=".55" stop-color="#e8edf5"/><stop offset="1" stop-color="#b4c0d0"/></linearGradient>
<linearGradient id="silver" x1="8" y1="8" x2="56" y2="56" gradientUnits="userSpaceOnUse"><stop stop-color="#f8fafb"/><stop offset=".48" stop-color="#8b95a2"/><stop offset="1" stop-color="#59616d"/></linearGradient>
<linearGradient id="dark" x1="8" y1="8" x2="56" y2="56" gradientUnits="userSpaceOnUse"><stop stop-color="#737d8a"/><stop offset=".5" stop-color="#303641"/><stop offset="1" stop-color="#15181d"/></linearGradient>
<linearGradient id="blue" x1="12" y1="12" x2="54" y2="52" gradientUnits="userSpaceOnUse"><stop stop-color="#86aee2"/><stop offset=".5" stop-color="#416ca7"/><stop offset="1" stop-color="#294b7b"/></linearGradient>
<filter id="lift" x="-45%" y="-45%" width="190%" height="200%"><feDropShadow dx="0" dy="1.6" stdDeviation="1.5" flood-color="#15181d" flood-opacity=".2"/></filter>
<filter id="contact" x="-50%" y="-50%" width="200%" height="220%"><feDropShadow dx="0" dy=".55" stdDeviation=".4" flood-color="#15181d" flood-opacity=".22"/></filter>
</defs><g filter="url(#lift)"><path d="M20 30V21a12 12 0 0 1 24 0v9" stroke="url(#dark)" stroke-width="6.5"/><path d="M18.2 27V20a13 13 0 0 1 24.5-6" stroke="#ccd4df" stroke-opacity=".6" stroke-width=".7" stroke-linecap="round"/><rect x="11" y="27.5" width="44" height="30" rx="7.5" fill="url(#silver)"/><rect x="9.5" y="25" width="44" height="30" rx="7.5" fill="url(#paper)" stroke="url(#edge)" stroke-width=".65"/><path d="M15.5 26h31" stroke="#fff" stroke-width=".7" stroke-linecap="round"/><rect x="17" y="36" width="29" height="9" rx="4.5" fill="url(#dark)"/><path d="M20.5 38.5h22" stroke="#9ba8b9" stroke-opacity=".5" stroke-width=".5"/><g fill="#c8d5e7"><circle cx="23" cy="40.5" r="1"/><circle cx="28.5" cy="40.5" r="1"/><circle cx="34" cy="40.5" r="1"/><circle cx="39.5" cy="40.5" r="1"/></g><path d="M19 49h8m4 0h5m4 0h3" stroke="#879bae" stroke-width=".8" stroke-linecap="round"/></g></svg>