<svg xmlns="http://www.w3.org/2000/svg" viewBox="0 0 64 64" fill="none" data-icon-material="allybi-neutral"><defs>
<linearGradient id="paper" x1="8" y1="8" x2="56" y2="56" gradientUnits="userSpaceOnUse"><stop stop-color="#fff"/><stop offset=".38" stop-color="#f3f6fa"/><stop offset=".73" stop-color="#e5eaf2"/><stop offset="1" stop-color="#cad2df"/></linearGradient>
<linearGradient id="edge" x1="8" y1="8" x2="56" y2="56" gradientUnits="userSpaceOnUse"><stop stop-color="#fff"/><stop offset=".55" stop-color="#e8edf5"/><stop offset="1" stop-color="#b4c0d0"/></linearGradient>
<linearGradient id="silver" x1="8" y1="8" x2="56" y2="56" gradientUnits="userSpaceOnUse"><stop stop-color="#f8fafb"/><stop offset=".48" stop-color="#8b95a2"/><stop offset="1" stop-color="#59616d"/></linearGradient>
<linearGradient id="dark" x1="8" y1="8" x2="56" y2="56" gradientUnits="userSpaceOnUse"><stop stop-color="#737d8a"/><stop offset=".5" stop-color="#303641"/><stop offset="1" stop-color="#15181d"/></linearGradient>
<linearGradient id="blue" x1="12" y1="12" x2="54" y2="52" gradientUnits="userSpaceOnUse"><stop stop-color="#86aee2"/><stop offset=".5" stop-color="#416ca7"/><stop offset="1" stop-color="#294b7b"/></linearGradient>
<filter id="lift" x="-45%" y="-45%" width="190%" height="200%"><feDropShadow dx="0" dy="1.6" stdDeviation="1.5" flood-color="#15181d" flood-opacity=".2"/></filter>
<filter id="contact" x="-50%" y="-50%" width="200%" height="220%"><feDropShadow dx="0" dy=".55" stdDeviation=".4" flood-color="#15181d" flood-opacity=".22"/></filter>
</defs><g filter="url(#lift)" stroke-linecap="round" stroke-linejoin="round"><path d="M30 27h18a8 8 0 0 1 8 8v10a8 8 0 0 1-8 8h-6l-9 5v-5h-3a8 8 0 0 1-8-8V35a8 8 0 0 1 8-8Z" fill="url(#silver)"/><path d="M17 10h23a8 8 0 0 1 8 8v15a8 8 0 0 1-8 8H27l-13 8v-8a8 8 0 0 1-5-8V18a8 8 0 0 1 8-8Z" fill="url(#dark)"/><path d="M17 9h23a8 8 0 0 1 8 8" stroke="url(#edge)" stroke-opacity=".6" stroke-width=".7"/><path d="M18 20h21m-21 7h15" stroke="#dce6f3" stroke-width="2"/><path d="M33 45h13" stroke="#e6eef8" stroke-width="1.5"/></g></svg>