<svg xmlns="http://www.w3.org/2000/svg" viewBox="0 0 64 64" fill="none" data-icon-material="allybi-neutral"><defs>
<linearGradient id="paper" x1="8" y1="8" x2="56" y2="56" gradientUnits="userSpaceOnUse"><stop stop-color="#fff"/><stop offset=".38" stop-color="#f3f6fa"/><stop offset=".73" stop-color="#e5eaf2"/><stop offset="1" stop-color="#cad2df"/></linearGradient>
<linearGradient id="edge" x1="8" y1="8" x2="56" y2="56" gradientUnits="userSpaceOnUse"><stop stop-color="#fff"/><stop offset=".55" stop-color="#e8edf5"/><stop offset="1" stop-color="#b4c0d0"/></linearGradient>
<linearGradient id="silver" x1="8" y1="8" x2="56" y2="56" gradientUnits="userSpaceOnUse"><stop stop-color="#f8fafb"/><stop offset=".48" stop-color="#8b95a2"/><stop offset="1" stop-color="#59616d"/></linearGradient>
<linearGradient id="dark" x1="8" y1="8" x2="56" y2="56" gradientUnits="userSpaceOnUse"><stop stop-color="#737d8a"/><stop offset=".5" stop-color="#303641"/><stop offset="1" stop-color="#15181d"/></linearGradient>
<linearGradient id="blue" x1="12" y1="12" x2="54" y2="52" gradientUnits="userSpaceOnUse"><stop stop-color="#86aee2"/><stop offset=".5" stop-color="#416ca7"/><stop offset="1" stop-color="#294b7b"/></linearGradient>
<filter id="lift" x="-45%" y="-45%" width="190%" height="200%"><feDropShadow dx="0" dy="1.6" stdDeviation="1.5" flood-color="#15181d" flood-opacity=".2"/></filter>
<filter id="contact" x="-50%" y="-50%" width="200%" height="220%"><feDropShadow dx="0" dy=".55" stdDeviation=".4" flood-color="#15181d" flood-opacity=".22"/></filter>
</defs><g filter="url(#lift)" stroke-linecap="round" stroke-linejoin="round"><path d="m41 42 12 13" stroke="url(#dark)" stroke-width="8"/><path d="m42 42 12 12" stroke="url(#silver)" stroke-width="6"/><path d="m46 47 7 7" stroke="url(#blue)" stroke-width="4"/><circle cx="27" cy="27" r="18" fill="url(#dark)"/><circle cx="26" cy="25" r="18" fill="url(#silver)"/><circle cx="26" cy="25" r="13.3" fill="url(#paper)" stroke="#6b7685" stroke-width="1.3"/><path d="M12 22a15 15 0 0 1 23-10" stroke="#fff" stroke-opacity=".8" stroke-width=".85"/><path d="M18 28a9 9 0 0 1 6-12" stroke="#fff" stroke-opacity=".8" stroke-width="2"/></g></svg>