<svg xmlns="http://www.w3.org/2000/svg" viewBox="0 0 64 64" fill="none" data-icon-material="allybi-neutral"><defs>
<linearGradient id="paper" x1="8" y1="8" x2="56" y2="56" gradientUnits="userSpaceOnUse"><stop stop-color="#fff"/><stop offset=".38" stop-color="#f3f6fa"/><stop offset=".73" stop-color="#e5eaf2"/><stop offset="1" stop-color="#cad2df"/></linearGradient>
<linearGradient id="edge" x1="8" y1="8" x2="56" y2="56" gradientUnits="userSpaceOnUse"><stop stop-color="#fff"/><stop offset=".55" stop-color="#e8edf5"/><stop offset="1" stop-color="#b4c0d0"/></linearGradient>
<linearGradient id="silver" x1="8" y1="8" x2="56" y2="56" gradientUnits="userSpaceOnUse"><stop stop-color="#f8fafb"/><stop offset=".48" stop-color="#8b95a2"/><stop offset="1" stop-color="#59616d"/></linearGradient>
<linearGradient id="dark" x1="8" y1="8" x2="56" y2="56" gradientUnits="userSpaceOnUse"><stop stop-color="#737d8a"/><stop offset=".5" stop-color="#303641"/><stop offset="1" stop-color="#15181d"/></linearGradient>
<linearGradient id="blue" x1="12" y1="12" x2="54" y2="52" gradientUnits="userSpaceOnUse"><stop stop-color="#86aee2"/><stop offset=".5" stop-color="#416ca7"/><stop offset="1" stop-color="#294b7b"/></linearGradient>
<filter id="lift" x="-45%" y="-45%" width="190%" height="200%"><feDropShadow dx="0" dy="1.6" stdDeviation="1.5" flood-color="#15181d" flood-opacity=".2"/></filter>
<filter id="contact" x="-50%" y="-50%" width="200%" height="220%"><feDropShadow dx="0" dy=".55" stdDeviation=".4" flood-color="#15181d" flood-opacity=".22"/></filter>
</defs><g filter="url(#lift)" stroke-linecap="round" stroke-linejoin="round"><path d="M11 38v10c0 5 42 5 42 0V38Z" fill="url(#dark)"/><path d="M11 36v10c0 8 42 8 42 0V36Z" fill="url(#silver)"/><ellipse cx="32" cy="36" rx="21" ry="7" fill="url(#paper)"/><path d="M11 26v9c0 8 42 8 42 0v-9Z" fill="url(#dark)"/><path d="M11 24v9c0 8 42 8 42 0v-9Z" fill="url(#silver)"/><ellipse cx="32" cy="24" rx="21" ry="7" fill="url(#paper)"/><path d="M11 14v9c0 8 42 8 42 0v-9Z" fill="url(#dark)"/><path d="M11 13v8c0 8 42 8 42 0v-8Z" fill="url(#silver)"/><ellipse cx="32" cy="13" rx="21" ry="7" fill="url(#paper)" stroke="url(#edge)" stroke-width=".7"/><path d="M44 22h4m-4 12h4m-4 13h4" stroke="url(#blue)" stroke-width="2.2"/><path d="M13 16v5m0 7v5m0 7v5" stroke="#f7faff" stroke-opacity=".7" stroke-width=".65"/></g></svg>